<?xml version="1.0" encoding="utf-8"?>
<!-- Generator: Adobe Illustrator 15.1.0, SVG Export Plug-In . SVG Version: 6.00 Build 0)  -->
<!DOCTYPE svg PUBLIC "-//W3C//DTD SVG 1.1//EN" "http://www.w3.org/Graphics/SVG/1.1/DTD/svg11.dtd">
<svg version="1.1" id="Layer_1" xmlns="http://www.w3.org/2000/svg" xmlns:xlink="http://www.w3.org/1999/xlink" x="0px" y="0px"
	 width="32px" height="32px" viewBox="0 0 32 32" enable-background="new 0 0 32 32" xml:space="preserve">
<g id="Layer_2">
	<g>
		<path fill="#61BDFB" d="M28.368,32c-2.947-1.114-5.446-1.669-7.498-1.669c-0.24,0-0.603,0.021-1.08,0.063l-0.063-0.557
			c0.588-0.152,1.062-0.359,1.422-0.622c0.361-0.262,0.496-0.567,0.41-0.916h0.033l-0.918-3.731
			c-0.283-1.244-0.808-2.362-1.572-3.357c-0.764-0.992-1.635-1.811-2.616-2.455c-0.983-0.643-1.953-1.096-2.914-1.357l-0.328,1.408
			c-0.546,2.53-1.08,4.66-1.604,6.383c-0.523,1.727-1.244,3.221-2.161,4.486c-0.916,1.266-2.052,1.897-3.404,1.897
			c-0.896,0-1.61-0.244-2.145-0.736c-0.535-0.489-0.802-1.13-0.802-1.916c0-0.478,0.12-1.014,0.36-1.604
			c0.327,0.918,1.102,1.377,2.325,1.377c1.134,0,2.127-0.685,2.979-2.047c0.851-1.363,1.511-2.812,1.98-4.338
			c0.469-1.527,0.921-3.23,1.358-5.107c-0.284,0-0.546,0.031-0.785,0.098c-0.48,0.131-0.857,0.391-1.129,0.771
			c-0.273,0.381-0.409,0.802-0.409,1.26c0,0.415,0.109,0.797,0.327,1.146c-0.655-0.371-1.141-0.791-1.457-1.262
			c-0.316-0.469-0.475-0.955-0.475-1.457c0-0.785,0.36-1.479,1.08-2.079c0.721-0.602,1.583-0.901,2.586-0.901
			c0.197,0,0.469,0.022,0.819,0.066l2.88-11.623l-0.033-0.065c-0.501-0.283-0.998-0.507-1.489-0.671
			c-0.491-0.164-1.042-0.246-1.653-0.246c-0.589,0-1.054,0.158-1.392,0.475c-0.339,0.317-0.507,0.693-0.507,1.129
			c0,0.35,0.125,0.655,0.376,0.917c0.251,0.262,0.606,0.393,1.064,0.393c0.306,0,0.633-0.066,0.982-0.197
			c0.021,0.741-0.186,1.282-0.622,1.62c-0.437,0.339-0.96,0.508-1.571,0.508c-0.961,0-1.703-0.29-2.227-0.868
			C7.973,5.639,7.712,4.935,7.712,4.105c0-0.633,0.158-1.239,0.474-1.817S8.971,1.24,9.594,0.881
			c0.622-0.36,1.358-0.541,2.209-0.541c0.895,0,1.713,0.142,2.455,0.426C15,1.05,15.852,1.464,16.812,2.01
			c0.131,0.064,0.451,0.234,0.963,0.507c0.515,0.272,1,0.474,1.457,0.605c0.414,0.131,0.841,0.196,1.277,0.196
			c0.307,0,0.578-0.109,0.818-0.328c0.24-0.217,0.359-0.458,0.359-0.72c0-0.327-0.207-0.589-0.621-0.785
			c0.131-0.043,0.326-0.066,0.588-0.066c0.459,0,0.813,0.142,1.064,0.426c0.25,0.284,0.377,0.621,0.377,1.014
			c0,0.524-0.219,0.994-0.654,1.408c-0.438,0.415-1.049,0.622-1.834,0.622c-0.24,0-0.558-0.021-0.949-0.066l2.881,11.819
			c0.415,0.35,0.896,0.567,1.439,0.654c-0.195,0.176-0.388,0.398-0.572,0.671c-0.186,0.275-0.311,0.53-0.377,0.771l2.455,10.019
			c0.24,0.545,0.623,1.053,1.146,1.521s1.08,0.855,1.67,1.162L28.368,32z M14.128,15.171c0.982,0.328,1.938,0.852,2.865,1.572
			c0.926,0.72,1.75,1.616,2.47,2.685L16.29,6.233L14.128,15.171z"/>
	</g>
</g>
</svg>
